<svg width="78" height="17" viewBox="0 0 78 17" fill="none" xmlns="http://www.w3.org/2000/svg">
<path d="M3.32 13H0.08V0.399999H10.07V2.92H3.32V5.89H8.63V8.41H3.32V13ZM15.11 3.82V13H11.96V6.25H10.61V3.82H15.11ZM11.96 0.219999H15.11V2.74H11.96V0.219999ZM23.5756 13C22.4116 13.12 21.2716 13.18 20.1556 13.18C19.3396 13.18 18.6856 12.934 18.1936 12.442C17.7016 11.95 17.4556 11.296 17.4556 10.48V5.89H16.3756V3.46H17.4556L17.8156 1.3H20.6056V3.46H22.8556V5.89H20.6056V10.03C20.6056 10.21 20.6656 10.36 20.7856 10.48C20.9056 10.6 21.0556 10.66 21.2356 10.66H23.5756V13Z" fill="#FF5722"/>
<path d="M33.8434 15.88C33.0034 16 32.1994 16.06 31.4314 16.06C30.6634 16.06 30.0334 15.814 29.5414 15.322C29.0494 14.83 28.8034 14.176 28.8034 13.36V13.18H28.2634C27.0034 13.18 26.0854 12.898 25.5094 12.334C24.9454 11.758 24.6634 10.84 24.6634 9.58V3.82C24.6634 2.56 24.9454 1.648 25.5094 1.084C26.0854 0.507999 27.0034 0.219999 28.2634 0.219999H32.7634C34.0234 0.219999 34.9354 0.507999 35.4994 1.084C36.0754 1.648 36.3634 2.56 36.3634 3.82V9.58C36.3634 10.84 36.0754 11.758 35.4994 12.334C34.9354 12.898 34.0234 13.18 32.7634 13.18H31.8634V13.36C31.8634 13.54 31.9234 13.69 32.0434 13.81C32.1634 13.93 32.3134 13.99 32.4934 13.99H33.8434V15.88ZM33.1234 3.82C33.1234 3.1 32.7634 2.74 32.0434 2.74H28.9834C28.2634 2.74 27.9034 3.1 27.9034 3.82V9.58C27.9034 10.3 28.2634 10.66 28.9834 10.66H32.0434C32.7634 10.66 33.1234 10.3 33.1234 9.58V3.82ZM42.4018 10.57C43.0378 10.57 43.7578 10.45 44.5618 10.21V3.46H47.7118V13H44.9218L44.7418 12.1C44.1778 12.472 43.5958 12.748 42.9958 12.928C42.4078 13.096 41.9098 13.18 41.5018 13.18H40.6918C39.8758 13.18 39.2218 12.934 38.7298 12.442C38.2378 11.95 37.9918 11.296 37.9918 10.48V3.46H41.1418V9.94C41.1418 10.12 41.2018 10.27 41.3218 10.39C41.4418 10.51 41.5918 10.57 41.7718 10.57H42.4018ZM53.1955 5.53C52.7155 5.53 52.4755 5.77 52.4755 6.25V7.24H55.5355V6.25C55.5355 5.77 55.2955 5.53 54.8155 5.53H53.1955ZM58.3255 12.82C56.0095 13.06 53.9095 13.18 52.0255 13.18C51.2095 13.18 50.5555 12.934 50.0635 12.442C49.5715 11.95 49.3255 11.296 49.3255 10.48V6.16C49.3255 5.26 49.5775 4.558 50.0815 4.054C50.5975 3.538 51.3055 3.28 52.2055 3.28H55.8055C56.7055 3.28 57.4075 3.538 57.9115 4.054C58.4275 4.558 58.6855 5.26 58.6855 6.16V9.49H52.4755V10.21C52.4755 10.39 52.5355 10.54 52.6555 10.66C52.7755 10.78 52.9255 10.84 53.1055 10.84C54.2935 10.84 56.0335 10.75 58.3255 10.57V12.82ZM59.9384 10.48C62.3744 10.66 64.2944 10.75 65.6984 10.75C65.8784 10.75 66.0284 10.69 66.1484 10.57C66.2684 10.45 66.3284 10.3 66.3284 10.12V9.49H62.4584C61.6424 9.49 60.9884 9.244 60.4964 8.752C60.0044 8.26 59.7584 7.606 59.7584 6.79V6.16C59.7584 5.344 60.0044 4.69 60.4964 4.198C60.9884 3.706 61.6424 3.46 62.4584 3.46H68.5784V5.8H63.5384C63.3584 5.8 63.2084 5.86 63.0884 5.98C62.9684 6.1 62.9084 6.25 62.9084 6.43C62.9084 6.61 62.9684 6.76 63.0884 6.88C63.2084 7 63.3584 7.06 63.5384 7.06H66.7784C67.5944 7.06 68.2484 7.306 68.7404 7.798C69.2324 8.29 69.4784 8.944 69.4784 9.76V10.48C69.4784 11.296 69.2324 11.95 68.7404 12.442C68.2484 12.934 67.5944 13.18 66.7784 13.18C64.6544 13.18 62.3744 13.06 59.9384 12.82V10.48ZM77.3998 13C76.2358 13.12 75.0958 13.18 73.9798 13.18C73.1638 13.18 72.5098 12.934 72.0178 12.442C71.5258 11.95 71.2798 11.296 71.2798 10.48V5.89H70.1998V3.46H71.2798L71.6398 1.3H74.4298V3.46H76.6798V5.89H74.4298V10.03C74.4298 10.21 74.4898 10.36 74.6098 10.48C74.7298 10.6 74.8798 10.66 75.0598 10.66H77.3998V13Z" fill="white"/>
</svg>
